<svg xmlns="http://www.w3.org/2000/svg" viewBox="0 0 64 64">
  <rect width="64" height="64" rx="16" fill="#111111"/>
  <circle cx="48" cy="16" r="7" fill="#f5c842"/>
  <path fill="#ffffff" d="M16 43.5c3.3 2.6 7 3.9 11.1 3.9 4.8 0 8.4-2.1 8.4-6.2 0-3.5-2.4-5.2-7.1-6.5l-3.3-.9c-2.4-.7-3.5-1.4-3.5-2.9 0-1.8 1.7-2.9 4.4-2.9 2.7 0 5.2.8 7.4 2.4l3.4-5.3c-2.8-2.2-6.4-3.4-10.7-3.4-6.8 0-11.6 3.8-11.6 9.6 0 4.7 3 7.3 8.6 8.8l3.2.9c2.2.6 3.1 1.3 3.1 2.5 0 1.8-1.8 2.6-4.6 2.6-3 0-5.9-1-8.5-3.1L16 43.5Z"/>
</svg>
